<?xml version="1.0" standalone="no"?>
<svg xmlns:xlink="http://www.w3.org/1999/xlink" id="wave" style="transform:rotate(180deg); transition: 0.3s" viewBox="0 0 1440 100" version="1.1" xmlns="http://www.w3.org/2000/svg"><defs><linearGradient id="sw-gradient-0" x1="0" x2="0" y1="1" y2="0"><stop stop-color="rgba(255, 255, 255, 1)" offset="0%"/><stop stop-color="rgba(240, 245, 250, 1)" offset="100%"/></linearGradient></defs><path style="transform:translate(0, 0px); opacity:1" fill="url(#sw-gradient-0)" d="M0,30L26.7,36.7C53.3,43,107,57,160,55C213.3,53,267,37,320,25C373.3,13,427,7,480,5C533.3,3,587,7,640,15C693.3,23,747,37,800,50C853.3,63,907,77,960,78.3C1013.3,80,1067,70,1120,58.3C1173.3,47,1227,33,1280,26.7C1333.3,20,1387,20,1440,21.7C1493.3,23,1547,27,1600,30C1653.3,33,1707,37,1760,33.3C1813.3,30,1867,20,1920,15C1973.3,10,2027,10,2080,16.7C2133.3,23,2187,37,2240,48.3C2293.3,60,2347,70,2400,63.3C2453.3,57,2507,33,2560,23.3C2613.3,13,2667,17,2720,20C2773.3,23,2827,27,2880,33.3C2933.3,40,2987,50,3040,45C3093.3,40,3147,20,3200,16.7C3253.3,13,3307,27,3360,36.7C3413.3,47,3467,53,3520,50C3573.3,47,3627,33,3680,31.7C3733.3,30,3787,40,3813,45L3840,50L3840,100L3813.3,100C3786.7,100,3733,100,3680,100C3626.7,100,3573,100,3520,100C3466.7,100,3413,100,3360,100C3306.7,100,3253,100,3200,100C3146.7,100,3093,100,3040,100C2986.7,100,2933,100,2880,100C2826.7,100,2773,100,2720,100C2666.7,100,2613,100,2560,100C2506.7,100,2453,100,2400,100C2346.7,100,2293,100,2240,100C2186.7,100,2133,100,2080,100C2026.7,100,1973,100,1920,100C1866.7,100,1813,100,1760,100C1706.7,100,1653,100,1600,100C1546.7,100,1493,100,1440,100C1386.7,100,1333,100,1280,100C1226.7,100,1173,100,1120,100C1066.7,100,1013,100,960,100C906.7,100,853,100,800,100C746.7,100,693,100,640,100C586.7,100,533,100,480,100C426.7,100,373,100,320,100C266.7,100,213,100,160,100C106.7,100,53,100,27,100L0,100Z"/></svg>