<?xml version="1.0" standalone="no"?>
<svg xmlns:xlink="http://www.w3.org/1999/xlink" id="wave" style="transform:rotate(0deg); transition: 0.3s" viewBox="0 0 1440 110" version="1.1" xmlns="http://www.w3.org/2000/svg"><defs><linearGradient id="sw-gradient-0" x1="0" x2="0" y1="1" y2="0"><stop stop-color="rgba(240, 245, 250, 1)" offset="0%"/><stop stop-color="rgba(240, 245, 250, 1)" offset="100%"/></linearGradient></defs><path style="transform:translate(0, 0px); opacity:1" fill="url(#sw-gradient-0)" d="M0,66L30,66C60,66,120,66,180,58.7C240,51,300,37,360,27.5C420,18,480,15,540,16.5C600,18,660,26,720,31.2C780,37,840,40,900,42.2C960,44,1020,44,1080,38.5C1140,33,1200,22,1260,20.2C1320,18,1380,26,1440,31.2C1500,37,1560,40,1620,38.5C1680,37,1740,29,1800,38.5C1860,48,1920,73,1980,71.5C2040,70,2100,40,2160,40.3C2220,40,2280,70,2340,69.7C2400,70,2460,40,2520,27.5C2580,15,2640,18,2700,18.3C2760,18,2820,15,2880,27.5C2940,40,3000,70,3060,80.7C3120,92,3180,84,3240,80.7C3300,77,3360,77,3420,71.5C3480,66,3540,55,3600,51.3C3660,48,3720,51,3780,45.8C3840,40,3900,26,3960,18.3C4020,11,4080,11,4140,20.2C4200,29,4260,48,4290,56.8L4320,66L4320,110L4290,110C4260,110,4200,110,4140,110C4080,110,4020,110,3960,110C3900,110,3840,110,3780,110C3720,110,3660,110,3600,110C3540,110,3480,110,3420,110C3360,110,3300,110,3240,110C3180,110,3120,110,3060,110C3000,110,2940,110,2880,110C2820,110,2760,110,2700,110C2640,110,2580,110,2520,110C2460,110,2400,110,2340,110C2280,110,2220,110,2160,110C2100,110,2040,110,1980,110C1920,110,1860,110,1800,110C1740,110,1680,110,1620,110C1560,110,1500,110,1440,110C1380,110,1320,110,1260,110C1200,110,1140,110,1080,110C1020,110,960,110,900,110C840,110,780,110,720,110C660,110,600,110,540,110C480,110,420,110,360,110C300,110,240,110,180,110C120,110,60,110,30,110L0,110Z"/></svg>