<?xml version="1.0" standalone="no"?>
<svg xmlns:xlink="http://www.w3.org/1999/xlink" id="wave" style="transform:rotate(0deg); transition: 0.3s" viewBox="0 0 1440 270" version="1.1" xmlns="http://www.w3.org/2000/svg"><defs><linearGradient id="sw-gradient-0" x1="0" x2="0" y1="1" y2="0"><stop stop-color="rgba(179.775, 214.338, 204.972, 1)" offset="0%"/><stop stop-color="rgba(164.043, 199.005, 214.338, 1)" offset="100%"/></linearGradient></defs><path style="transform:translate(0, 0px); opacity:1" fill="url(#sw-gradient-0)" d="M0,54L60,76.5C120,99,240,144,360,157.5C480,171,600,153,720,162C840,171,960,207,1080,225C1200,243,1320,243,1440,243C1560,243,1680,243,1800,225C1920,207,2040,171,2160,171C2280,171,2400,207,2520,207C2640,207,2760,171,2880,162C3000,153,3120,171,3240,189C3360,207,3480,225,3600,234C3720,243,3840,243,3960,220.5C4080,198,4200,153,4320,144C4440,135,4560,162,4680,171C4800,180,4920,171,5040,171C5160,171,5280,180,5400,180C5520,180,5640,171,5760,166.5C5880,162,6000,162,6120,153C6240,144,6360,126,6480,126C6600,126,6720,144,6840,157.5C6960,171,7080,180,7200,157.5C7320,135,7440,81,7560,58.5C7680,36,7800,45,7920,67.5C8040,90,8160,126,8280,153C8400,180,8520,198,8580,207L8640,216L8640,270L8580,270C8520,270,8400,270,8280,270C8160,270,8040,270,7920,270C7800,270,7680,270,7560,270C7440,270,7320,270,7200,270C7080,270,6960,270,6840,270C6720,270,6600,270,6480,270C6360,270,6240,270,6120,270C6000,270,5880,270,5760,270C5640,270,5520,270,5400,270C5280,270,5160,270,5040,270C4920,270,4800,270,4680,270C4560,270,4440,270,4320,270C4200,270,4080,270,3960,270C3840,270,3720,270,3600,270C3480,270,3360,270,3240,270C3120,270,3000,270,2880,270C2760,270,2640,270,2520,270C2400,270,2280,270,2160,270C2040,270,1920,270,1800,270C1680,270,1560,270,1440,270C1320,270,1200,270,1080,270C960,270,840,270,720,270C600,270,480,270,360,270C240,270,120,270,60,270L0,270Z"/><defs><linearGradient id="sw-gradient-1" x1="0" x2="0" y1="1" y2="0"><stop stop-color="rgba(129.528, 189.017, 207.508, 1)" offset="0%"/><stop stop-color="rgba(139.239, 173.939, 209.784, 1)" offset="100%"/></linearGradient></defs><path style="transform:translate(0, 50px); opacity:0.9" fill="url(#sw-gradient-1)" d="M0,81L60,76.5C120,72,240,63,360,85.5C480,108,600,162,720,166.5C840,171,960,126,1080,126C1200,126,1320,171,1440,175.5C1560,180,1680,144,1800,126C1920,108,2040,108,2160,112.5C2280,117,2400,126,2520,126C2640,126,2760,117,2880,130.5C3000,144,3120,180,3240,166.5C3360,153,3480,90,3600,67.5C3720,45,3840,63,3960,72C4080,81,4200,81,4320,108C4440,135,4560,189,4680,175.5C4800,162,4920,81,5040,76.5C5160,72,5280,144,5400,153C5520,162,5640,108,5760,99C5880,90,6000,126,6120,117C6240,108,6360,54,6480,45C6600,36,6720,72,6840,85.5C6960,99,7080,90,7200,94.5C7320,99,7440,117,7560,135C7680,153,7800,171,7920,189C8040,207,8160,225,8280,225C8400,225,8520,207,8580,198L8640,189L8640,270L8580,270C8520,270,8400,270,8280,270C8160,270,8040,270,7920,270C7800,270,7680,270,7560,270C7440,270,7320,270,7200,270C7080,270,6960,270,6840,270C6720,270,6600,270,6480,270C6360,270,6240,270,6120,270C6000,270,5880,270,5760,270C5640,270,5520,270,5400,270C5280,270,5160,270,5040,270C4920,270,4800,270,4680,270C4560,270,4440,270,4320,270C4200,270,4080,270,3960,270C3840,270,3720,270,3600,270C3480,270,3360,270,3240,270C3120,270,3000,270,2880,270C2760,270,2640,270,2520,270C2400,270,2280,270,2160,270C2040,270,1920,270,1800,270C1680,270,1560,270,1440,270C1320,270,1200,270,1080,270C960,270,840,270,720,270C600,270,480,270,360,270C240,270,120,270,60,270L0,270Z"/><defs><linearGradient id="sw-gradient-2" x1="0" x2="0" y1="1" y2="0"><stop stop-color="rgba(124.131, 146.225, 200.677, 1)" offset="0%"/><stop stop-color="rgba(98.894, 102.203, 111.883, 1)" offset="100%"/></linearGradient></defs><path style="transform:translate(0, 100px); opacity:0.8" fill="url(#sw-gradient-2)" d="M0,162L60,157.5C120,153,240,144,360,139.5C480,135,600,135,720,112.5C840,90,960,45,1080,27C1200,9,1320,18,1440,58.5C1560,99,1680,171,1800,198C1920,225,2040,207,2160,171C2280,135,2400,81,2520,85.5C2640,90,2760,153,2880,189C3000,225,3120,234,3240,220.5C3360,207,3480,171,3600,130.5C3720,90,3840,45,3960,22.5C4080,0,4200,0,4320,18C4440,36,4560,72,4680,76.5C4800,81,4920,54,5040,72C5160,90,5280,153,5400,162C5520,171,5640,126,5760,108C5880,90,6000,99,6120,85.5C6240,72,6360,36,6480,31.5C6600,27,6720,54,6840,90C6960,126,7080,171,7200,180C7320,189,7440,162,7560,139.5C7680,117,7800,99,7920,76.5C8040,54,8160,27,8280,36C8400,45,8520,90,8580,112.5L8640,135L8640,270L8580,270C8520,270,8400,270,8280,270C8160,270,8040,270,7920,270C7800,270,7680,270,7560,270C7440,270,7320,270,7200,270C7080,270,6960,270,6840,270C6720,270,6600,270,6480,270C6360,270,6240,270,6120,270C6000,270,5880,270,5760,270C5640,270,5520,270,5400,270C5280,270,5160,270,5040,270C4920,270,4800,270,4680,270C4560,270,4440,270,4320,270C4200,270,4080,270,3960,270C3840,270,3720,270,3600,270C3480,270,3360,270,3240,270C3120,270,3000,270,2880,270C2760,270,2640,270,2520,270C2400,270,2280,270,2160,270C2040,270,1920,270,1800,270C1680,270,1560,270,1440,270C1320,270,1200,270,1080,270C960,270,840,270,720,270C600,270,480,270,360,270C240,270,120,270,60,270L0,270Z"/></svg>